# xmcd
#
# Track frame offsets:
#       150
#       13965
#       26992
#       43354
#       57392
#       61092
#       75798
#       82724
#       97650
#       106945
#       114849
#       125555
#       143580
#       153171
#       160714
#
# Disc length: 2333 seconds
#
# Revision: 1
# Processed by: cddbd v1.5.2PL0 Copyright (c) Steve Scherf et al.
# Submitted via: MusiCat 1.1
#
DISCID=a9091b0f
DTITLE=Bert Jansch - Bert Jansch 
DYEAR=1900
DGENRE=
TTITLE0=Strolling Down the Highway
TTITLE1=Smokey River
TTITLE2=Your Love Is Strong
TTITLE3=I Have No Time
TTITLE4=Finches
TTITLE5=Rambling's Going to Be the Death of Me
TTITLE6=Veronica
TTITLE7=Needle of Death
TTITLE8=Do You Hear Me Now -
TTITLE9=Alice's Wonderland
TTITLE10=Runnig Runnig From Home
TTITLE11=Courting Blues
TTITLE12=Casbah
TTITLE13=Dreams of Love
TTITLE14=Angie
EXTD=\n\n
EXTT0=
EXTT1=
EXTT2=
EXTT3=
EXTT4=
EXTT5=
EXTT6=
EXTT7=
EXTT8=
EXTT9=
EXTT10=
EXTT11=
EXTT12=
EXTT13=
EXTT14=\n
PLAYORDER=
